<mxfile host="Electron" agent="Mozilla/5.0 (Windows NT 10.0; Win64; x64) AppleWebKit/537.36 (KHTML, like Gecko) draw.io/21.3.7 Chrome/112.0.5615.204 Electron/24.5.0 Safari/537.36" modified="2024-08-20T03:59:08.323Z" version="21.3.7" etag="9k0RoZTq8E4g7uOukgqt" type="device">
  <diagram id="C5P8yMLSL903ihdw1GM1" name="低代码生产环境部署">
    <mxGraphModel dx="4056" dy="1327" grid="1" gridSize="10" guides="1" tooltips="1" connect="1" arrows="1" fold="1" page="1" pageScale="1" pageWidth="2336" pageHeight="1654" math="0" shadow="0">
      <root>
        <mxCell id="0" />
        <mxCell id="1" parent="0" />
        <mxCell id="ecegI3zlYM2VMeXqjpL7-66" value="&lt;b&gt;中间件&lt;/b&gt;" style="rounded=0;whiteSpace=wrap;html=1;dashed=1;verticalAlign=top;" parent="1" vertex="1">
          <mxGeometry x="-1800" y="530" width="820" height="520" as="geometry" />
        </mxCell>
        <mxCell id="ecegI3zlYM2VMeXqjpL7-1" value="" style="rounded=0;whiteSpace=wrap;html=1;" parent="1" vertex="1">
          <mxGeometry x="-1711.9199999999998" y="588" width="270" height="112" as="geometry" />
        </mxCell>
        <mxCell id="ecegI3zlYM2VMeXqjpL7-2" value="" style="rounded=0;whiteSpace=wrap;html=1;" parent="1" vertex="1">
          <mxGeometry x="-1736.32" y="312" width="370" height="172" as="geometry" />
        </mxCell>
        <mxCell id="ecegI3zlYM2VMeXqjpL7-3" style="rounded=0;orthogonalLoop=1;jettySize=auto;html=1;exitX=0.207;exitY=0.996;exitDx=0;exitDy=0;exitPerimeter=0;" parent="1" source="ecegI3zlYM2VMeXqjpL7-4" target="ecegI3zlYM2VMeXqjpL7-2" edge="1">
          <mxGeometry relative="1" as="geometry">
            <mxPoint x="-1747" y="267" as="sourcePoint" />
            <mxPoint x="-1747" y="297" as="targetPoint" />
          </mxGeometry>
        </mxCell>
        <mxCell id="ecegI3zlYM2VMeXqjpL7-4" value="" style="rounded=0;whiteSpace=wrap;html=1;" parent="1" vertex="1">
          <mxGeometry x="-1604.25" y="108" width="288.12" height="110" as="geometry" />
        </mxCell>
        <mxCell id="ecegI3zlYM2VMeXqjpL7-7" value="nginx&amp;amp;web&lt;div&gt;&lt;br/&gt;&lt;/div&gt;" style="sketch=0;pointerEvents=1;shadow=0;dashed=0;html=1;strokeColor=none;fillColor=#434445;aspect=fixed;labelPosition=center;verticalLabelPosition=bottom;verticalAlign=top;align=center;outlineConnect=0;shape=mxgraph.vvd.machine;" parent="1" vertex="1">
          <mxGeometry x="-1397.25" y="118" width="20.5" height="50" as="geometry" />
        </mxCell>
        <mxCell id="ecegI3zlYM2VMeXqjpL7-11" value="nginx&amp;amp;web&lt;div&gt;&lt;br/&gt;&lt;/div&gt;" style="sketch=0;pointerEvents=1;shadow=0;dashed=0;html=1;strokeColor=none;fillColor=#434445;aspect=fixed;labelPosition=center;verticalLabelPosition=bottom;verticalAlign=top;align=center;outlineConnect=0;shape=mxgraph.vvd.machine;" parent="1" vertex="1">
          <mxGeometry x="-1526.5" y="118" width="20.5" height="50" as="geometry" />
        </mxCell>
        <mxCell id="ecegI3zlYM2VMeXqjpL7-16" value="缓存" style="sketch=0;pointerEvents=1;shadow=0;dashed=0;html=1;strokeColor=none;fillColor=#434445;aspect=fixed;labelPosition=center;verticalLabelPosition=bottom;verticalAlign=top;align=center;outlineConnect=0;shape=mxgraph.vvd.machine;" parent="1" vertex="1">
          <mxGeometry x="-1682.4199999999998" y="604" width="20.5" height="50" as="geometry" />
        </mxCell>
        <mxCell id="ecegI3zlYM2VMeXqjpL7-19" value="" style="endArrow=none;dashed=1;html=1;dashPattern=1 3;strokeWidth=2;rounded=0;shadow=0;strokeColor=#000000;" parent="1" edge="1">
          <mxGeometry width="50" height="50" relative="1" as="geometry">
            <mxPoint x="-900" y="1070" as="sourcePoint" />
            <mxPoint x="-900" y="20" as="targetPoint" />
          </mxGeometry>
        </mxCell>
        <mxCell id="ecegI3zlYM2VMeXqjpL7-21" value="8核16G &lt;br&gt;数据盘100G" style="text;strokeColor=none;fillColor=none;align=right;verticalAlign=middle;spacingLeft=4;spacingRight=4;overflow=hidden;points=[[0,0.5],[1,0.5]];portConstraint=eastwest;rotatable=0;whiteSpace=wrap;html=1;" parent="1" vertex="1">
          <mxGeometry x="-1690" y="133" width="80" height="50" as="geometry" />
        </mxCell>
        <mxCell id="ecegI3zlYM2VMeXqjpL7-23" value="8核16G&lt;br&gt;数据盘100G" style="text;strokeColor=none;fillColor=none;align=right;verticalAlign=middle;spacingLeft=4;spacingRight=4;overflow=hidden;points=[[0,0.5],[1,0.5]];portConstraint=eastwest;rotatable=0;whiteSpace=wrap;html=1;" parent="1" vertex="1">
          <mxGeometry x="-1791.92" y="588" width="80" height="50" as="geometry" />
        </mxCell>
        <mxCell id="ecegI3zlYM2VMeXqjpL7-24" value="8核16G &lt;br&gt;数据盘300G" style="text;strokeColor=none;fillColor=none;align=right;verticalAlign=middle;spacingLeft=4;spacingRight=4;overflow=hidden;points=[[0,0.5],[1,0.5]];portConstraint=eastwest;rotatable=0;whiteSpace=wrap;html=1;" parent="1" vertex="1">
          <mxGeometry x="-1816.3200000000002" y="312" width="80.5" height="50" as="geometry" />
        </mxCell>
        <mxCell id="ecegI3zlYM2VMeXqjpL7-28" value="缓存&lt;span style=&quot;background-color: initial;&quot;&gt;&lt;br&gt;&lt;/span&gt;" style="sketch=0;pointerEvents=1;shadow=0;dashed=0;html=1;strokeColor=none;fillColor=#434445;aspect=fixed;labelPosition=center;verticalLabelPosition=bottom;verticalAlign=top;align=center;outlineConnect=0;shape=mxgraph.vvd.machine;" parent="1" vertex="1">
          <mxGeometry x="-1593.9199999999998" y="604" width="20.5" height="50" as="geometry" />
        </mxCell>
        <mxCell id="ecegI3zlYM2VMeXqjpL7-35" value="&lt;div class=&quot;lake-content&quot;&gt;&lt;p style=&quot;margin: 0; padding: 0; min-height: 24px&quot; class=&quot;ne-p&quot; id=&quot;u2987e213&quot;&gt;缓存&lt;br&gt;&lt;/p&gt;&lt;/div&gt;" style="sketch=0;pointerEvents=1;shadow=0;dashed=0;html=1;strokeColor=none;fillColor=#434445;aspect=fixed;labelPosition=center;verticalLabelPosition=bottom;verticalAlign=top;align=center;outlineConnect=0;shape=mxgraph.vvd.machine;" parent="1" vertex="1">
          <mxGeometry x="-1504.6699999999998" y="604" width="20.5" height="50" as="geometry" />
        </mxCell>
        <mxCell id="ecegI3zlYM2VMeXqjpL7-36" value="" style="rounded=0;whiteSpace=wrap;html=1;" parent="1" vertex="1">
          <mxGeometry x="-1711.9199999999998" y="900" width="270" height="120" as="geometry" />
        </mxCell>
        <mxCell id="ecegI3zlYM2VMeXqjpL7-37" value="消息队列" style="sketch=0;pointerEvents=1;shadow=0;dashed=0;html=1;strokeColor=none;fillColor=#434445;aspect=fixed;labelPosition=center;verticalLabelPosition=bottom;verticalAlign=top;align=center;outlineConnect=0;shape=mxgraph.vvd.machine;" parent="1" vertex="1">
          <mxGeometry x="-1682.9199999999998" y="917" width="20.5" height="50" as="geometry" />
        </mxCell>
        <mxCell id="ecegI3zlYM2VMeXqjpL7-38" value="消息队列" style="sketch=0;pointerEvents=1;shadow=0;dashed=0;html=1;strokeColor=none;fillColor=#434445;aspect=fixed;labelPosition=center;verticalLabelPosition=bottom;verticalAlign=top;align=center;outlineConnect=0;shape=mxgraph.vvd.machine;" parent="1" vertex="1">
          <mxGeometry x="-1594.4199999999998" y="917" width="20.5" height="50" as="geometry" />
        </mxCell>
        <mxCell id="ecegI3zlYM2VMeXqjpL7-39" value="消息队列" style="sketch=0;pointerEvents=1;shadow=0;dashed=0;html=1;strokeColor=none;fillColor=#434445;aspect=fixed;labelPosition=center;verticalLabelPosition=bottom;verticalAlign=top;align=center;outlineConnect=0;shape=mxgraph.vvd.machine;" parent="1" vertex="1">
          <mxGeometry x="-1502.4199999999998" y="917" width="20.5" height="50" as="geometry" />
        </mxCell>
        <mxCell id="ecegI3zlYM2VMeXqjpL7-40" value="8核16G&lt;br&gt;数据盘110G" style="text;strokeColor=none;fillColor=none;align=right;verticalAlign=middle;spacingLeft=4;spacingRight=4;overflow=hidden;points=[[0,0.5],[1,0.5]];portConstraint=eastwest;rotatable=0;whiteSpace=wrap;html=1;" parent="1" vertex="1">
          <mxGeometry x="-1791.92" y="900" width="80" height="50" as="geometry" />
        </mxCell>
        <mxCell id="ecegI3zlYM2VMeXqjpL7-41" value="" style="rounded=0;whiteSpace=wrap;html=1;" parent="1" vertex="1">
          <mxGeometry x="-1316.32" y="312" width="270" height="142" as="geometry" />
        </mxCell>
        <mxCell id="ecegI3zlYM2VMeXqjpL7-42" value="注册配置中心&lt;br&gt;分布式事务组件&lt;br&gt;任务管理组件" style="sketch=0;pointerEvents=1;shadow=0;dashed=0;html=1;strokeColor=none;fillColor=#434445;aspect=fixed;labelPosition=center;verticalLabelPosition=bottom;verticalAlign=top;align=center;outlineConnect=0;shape=mxgraph.vvd.machine;" parent="1" vertex="1">
          <mxGeometry x="-1281.82" y="331" width="20.5" height="50" as="geometry" />
        </mxCell>
        <mxCell id="ecegI3zlYM2VMeXqjpL7-43" value="注册配置中心&lt;br&gt;分布式事务组件&lt;br&gt;任务管理组件" style="sketch=0;pointerEvents=1;shadow=0;dashed=0;html=1;strokeColor=none;fillColor=#434445;aspect=fixed;labelPosition=center;verticalLabelPosition=bottom;verticalAlign=top;align=center;outlineConnect=0;shape=mxgraph.vvd.machine;" parent="1" vertex="1">
          <mxGeometry x="-1193.32" y="331" width="20.5" height="50" as="geometry" />
        </mxCell>
        <mxCell id="ecegI3zlYM2VMeXqjpL7-44" value="注册配置中心&lt;br&gt;分布式事务组件&lt;br&gt;任务管理组件" style="sketch=0;pointerEvents=1;shadow=0;dashed=0;html=1;strokeColor=none;fillColor=#434445;aspect=fixed;labelPosition=center;verticalLabelPosition=bottom;verticalAlign=top;align=center;outlineConnect=0;shape=mxgraph.vvd.machine;" parent="1" vertex="1">
          <mxGeometry x="-1101.32" y="331" width="20.5" height="50" as="geometry" />
        </mxCell>
        <mxCell id="ecegI3zlYM2VMeXqjpL7-45" value="8核16G &lt;br&gt;数据盘100G" style="text;strokeColor=none;fillColor=none;align=right;verticalAlign=middle;spacingLeft=4;spacingRight=4;overflow=hidden;points=[[0,0.5],[1,0.5]];portConstraint=eastwest;rotatable=0;whiteSpace=wrap;html=1;" parent="1" vertex="1">
          <mxGeometry x="-1045.1699999999998" y="312" width="80" height="50" as="geometry" />
        </mxCell>
        <mxCell id="ecegI3zlYM2VMeXqjpL7-46" value="" style="rounded=0;whiteSpace=wrap;html=1;align=center;verticalAlign=top;" parent="1" vertex="1">
          <mxGeometry x="-1299.4199999999998" y="587" width="294" height="128" as="geometry" />
        </mxCell>
        <mxCell id="ecegI3zlYM2VMeXqjpL7-47" value="关系型数据库" style="sketch=0;pointerEvents=1;shadow=0;dashed=0;html=1;strokeColor=none;fillColor=#434445;aspect=fixed;labelPosition=center;verticalLabelPosition=bottom;verticalAlign=top;align=center;outlineConnect=0;shape=mxgraph.vvd.machine;" parent="1" vertex="1">
          <mxGeometry x="-1266.6699999999998" y="613" width="20.5" height="50" as="geometry" />
        </mxCell>
        <mxCell id="ecegI3zlYM2VMeXqjpL7-48" value="关系型数据库" style="sketch=0;pointerEvents=1;shadow=0;dashed=0;html=1;strokeColor=none;fillColor=#434445;aspect=fixed;labelPosition=center;verticalLabelPosition=bottom;verticalAlign=top;align=center;outlineConnect=0;shape=mxgraph.vvd.machine;" parent="1" vertex="1">
          <mxGeometry x="-1163.5399999999997" y="613" width="20.5" height="50" as="geometry" />
        </mxCell>
        <mxCell id="ecegI3zlYM2VMeXqjpL7-49" value="关系型数据库" style="sketch=0;pointerEvents=1;shadow=0;dashed=0;html=1;strokeColor=none;fillColor=#434445;aspect=fixed;labelPosition=center;verticalLabelPosition=bottom;verticalAlign=top;align=center;outlineConnect=0;shape=mxgraph.vvd.machine;" parent="1" vertex="1">
          <mxGeometry x="-1065.6699999999998" y="613" width="20.5" height="50" as="geometry" />
        </mxCell>
        <mxCell id="ecegI3zlYM2VMeXqjpL7-50" value="8核16G&lt;br&gt;数据盘300G" style="text;strokeColor=none;fillColor=none;align=right;verticalAlign=middle;spacingLeft=4;spacingRight=4;overflow=hidden;points=[[0,0.5],[1,0.5]];portConstraint=eastwest;rotatable=0;whiteSpace=wrap;html=1;" parent="1" vertex="1">
          <mxGeometry x="-1381.1699999999998" y="587" width="80" height="50" as="geometry" />
        </mxCell>
        <mxCell id="ecegI3zlYM2VMeXqjpL7-59" value="" style="endArrow=classic;startArrow=classic;html=1;rounded=0;entryX=-0.01;entryY=0.56;entryDx=0;entryDy=0;entryPerimeter=0;" parent="1" target="ecegI3zlYM2VMeXqjpL7-41" edge="1">
          <mxGeometry width="50" height="50" relative="1" as="geometry">
            <mxPoint x="-1366.32" y="392" as="sourcePoint" />
            <mxPoint x="-1676.32" y="394" as="targetPoint" />
          </mxGeometry>
        </mxCell>
        <mxCell id="ecegI3zlYM2VMeXqjpL7-60" value="" style="endArrow=classic;html=1;rounded=0;exitX=0.5;exitY=1;exitDx=0;exitDy=0;entryX=0.306;entryY=-0.005;entryDx=0;entryDy=0;entryPerimeter=0;" parent="1" source="ecegI3zlYM2VMeXqjpL7-2" target="ecegI3zlYM2VMeXqjpL7-66" edge="1">
          <mxGeometry width="50" height="50" relative="1" as="geometry">
            <mxPoint x="-1392.1899999999996" y="530" as="sourcePoint" />
            <mxPoint x="-1770.8700000000003" y="560.4359999999999" as="targetPoint" />
          </mxGeometry>
        </mxCell>
        <mxCell id="ecegI3zlYM2VMeXqjpL7-61" value="" style="rounded=0;whiteSpace=wrap;html=1;" parent="1" vertex="1">
          <mxGeometry x="-1301.4199999999998" y="871" width="296" height="109" as="geometry" />
        </mxCell>
        <mxCell id="ecegI3zlYM2VMeXqjpL7-62" value="文件存储&lt;br&gt;日志查询" style="sketch=0;pointerEvents=1;shadow=0;dashed=0;html=1;strokeColor=none;fillColor=#434445;aspect=fixed;labelPosition=center;verticalLabelPosition=bottom;verticalAlign=top;align=center;outlineConnect=0;shape=mxgraph.vvd.machine;" parent="1" vertex="1">
          <mxGeometry x="-1267.5399999999997" y="886" width="20.5" height="50" as="geometry" />
        </mxCell>
        <mxCell id="ecegI3zlYM2VMeXqjpL7-63" value="文件存储&lt;br&gt;日志查询" style="sketch=0;pointerEvents=1;shadow=0;dashed=0;html=1;strokeColor=none;fillColor=#434445;aspect=fixed;labelPosition=center;verticalLabelPosition=bottom;verticalAlign=top;align=center;outlineConnect=0;shape=mxgraph.vvd.machine;" parent="1" vertex="1">
          <mxGeometry x="-1163.5399999999997" y="886" width="20.5" height="50" as="geometry" />
        </mxCell>
        <mxCell id="ecegI3zlYM2VMeXqjpL7-64" value="文件存储&lt;br&gt;日志查询" style="sketch=0;pointerEvents=1;shadow=0;dashed=0;html=1;strokeColor=none;fillColor=#434445;aspect=fixed;labelPosition=center;verticalLabelPosition=bottom;verticalAlign=top;align=center;outlineConnect=0;shape=mxgraph.vvd.machine;" parent="1" vertex="1">
          <mxGeometry x="-1065.6699999999998" y="886" width="20.5" height="50" as="geometry" />
        </mxCell>
        <mxCell id="ecegI3zlYM2VMeXqjpL7-65" value="8核16G&lt;br&gt;数据盘500G" style="text;strokeColor=none;fillColor=none;align=right;verticalAlign=middle;spacingLeft=4;spacingRight=4;overflow=hidden;points=[[0,0.5],[1,0.5]];portConstraint=eastwest;rotatable=0;whiteSpace=wrap;html=1;" parent="1" vertex="1">
          <mxGeometry x="-1390.87" y="880" width="80" height="50" as="geometry" />
        </mxCell>
        <mxCell id="ecegI3zlYM2VMeXqjpL7-67" value="" style="endArrow=classic;html=1;rounded=0;exitX=0.5;exitY=1;exitDx=0;exitDy=0;entryX=0.75;entryY=0;entryDx=0;entryDy=0;" parent="1" source="ecegI3zlYM2VMeXqjpL7-41" target="ecegI3zlYM2VMeXqjpL7-66" edge="1">
          <mxGeometry width="50" height="50" relative="1" as="geometry">
            <mxPoint x="-1726.32" y="479" as="sourcePoint" />
            <mxPoint x="-1541.32" y="515" as="targetPoint" />
          </mxGeometry>
        </mxCell>
        <mxCell id="ecegI3zlYM2VMeXqjpL7-68" value="应用网关&lt;br style=&quot;border-color: var(--border-color);&quot;&gt;租户系统组件&lt;br style=&quot;border-color: var(--border-color);&quot;&gt;微服务应用&lt;br style=&quot;border-color: var(--border-color);&quot;&gt;应用管理组件" style="sketch=0;pointerEvents=1;shadow=0;dashed=0;html=1;strokeColor=none;fillColor=#434445;aspect=fixed;labelPosition=center;verticalLabelPosition=bottom;verticalAlign=top;align=center;outlineConnect=0;shape=mxgraph.vvd.machine;" parent="1" vertex="1">
          <mxGeometry x="-1683.82" y="330" width="20.5" height="50" as="geometry" />
        </mxCell>
        <mxCell id="ecegI3zlYM2VMeXqjpL7-69" value="应用网关&lt;br style=&quot;border-color: var(--border-color);&quot;&gt;租户系统组件&lt;br style=&quot;border-color: var(--border-color);&quot;&gt;微服务应用&lt;br style=&quot;border-color: var(--border-color);&quot;&gt;应用管理组件&lt;span style=&quot;background-color: initial;&quot;&gt;&lt;br&gt;&lt;/span&gt;" style="sketch=0;pointerEvents=1;shadow=0;dashed=0;html=1;strokeColor=none;fillColor=#434445;aspect=fixed;labelPosition=center;verticalLabelPosition=bottom;verticalAlign=top;align=center;outlineConnect=0;shape=mxgraph.vvd.machine;" parent="1" vertex="1">
          <mxGeometry x="-1568.07" y="330" width="20.5" height="50" as="geometry" />
        </mxCell>
        <mxCell id="ecegI3zlYM2VMeXqjpL7-70" value="应用网关&lt;br style=&quot;border-color: var(--border-color);&quot;&gt;租户系统组件&lt;br style=&quot;border-color: var(--border-color);&quot;&gt;微服务应用&lt;br style=&quot;border-color: var(--border-color);&quot;&gt;应用管理组件&lt;span style=&quot;background-color: initial;&quot;&gt;&lt;br&gt;&lt;/span&gt;" style="sketch=0;pointerEvents=1;shadow=0;dashed=0;html=1;strokeColor=none;fillColor=#434445;aspect=fixed;labelPosition=center;verticalLabelPosition=bottom;verticalAlign=top;align=center;outlineConnect=0;shape=mxgraph.vvd.machine;" parent="1" vertex="1">
          <mxGeometry x="-1455.07" y="330" width="20.5" height="50" as="geometry" />
        </mxCell>
        <mxCell id="9kEiYTZM9LlW91c-PX7a-2" value="" style="rounded=0;whiteSpace=wrap;html=1;" parent="1" vertex="1">
          <mxGeometry x="-1711.9199999999998" y="751" width="270" height="104" as="geometry" />
        </mxCell>
        <mxCell id="9kEiYTZM9LlW91c-PX7a-3" value="非关系型数据库" style="sketch=0;pointerEvents=1;shadow=0;dashed=0;html=1;strokeColor=none;fillColor=#434445;aspect=fixed;labelPosition=center;verticalLabelPosition=bottom;verticalAlign=top;align=center;outlineConnect=0;shape=mxgraph.vvd.machine;" parent="1" vertex="1">
          <mxGeometry x="-1682.9199999999998" y="768" width="20.5" height="50" as="geometry" />
        </mxCell>
        <mxCell id="9kEiYTZM9LlW91c-PX7a-4" value="非关系型数据库" style="sketch=0;pointerEvents=1;shadow=0;dashed=0;html=1;strokeColor=none;fillColor=#434445;aspect=fixed;labelPosition=center;verticalLabelPosition=bottom;verticalAlign=top;align=center;outlineConnect=0;shape=mxgraph.vvd.machine;" parent="1" vertex="1">
          <mxGeometry x="-1594.4199999999998" y="768" width="20.5" height="50" as="geometry" />
        </mxCell>
        <mxCell id="9kEiYTZM9LlW91c-PX7a-5" value="非关系型数据库" style="sketch=0;pointerEvents=1;shadow=0;dashed=0;html=1;strokeColor=none;fillColor=#434445;aspect=fixed;labelPosition=center;verticalLabelPosition=bottom;verticalAlign=top;align=center;outlineConnect=0;shape=mxgraph.vvd.machine;" parent="1" vertex="1">
          <mxGeometry x="-1502.4199999999998" y="768" width="20.5" height="50" as="geometry" />
        </mxCell>
        <mxCell id="9kEiYTZM9LlW91c-PX7a-6" value="8核16G&lt;br&gt;数据盘110G" style="text;strokeColor=none;fillColor=none;align=right;verticalAlign=middle;spacingLeft=4;spacingRight=4;overflow=hidden;points=[[0,0.5],[1,0.5]];portConstraint=eastwest;rotatable=0;whiteSpace=wrap;html=1;" parent="1" vertex="1">
          <mxGeometry x="-1791.92" y="751" width="80" height="50" as="geometry" />
        </mxCell>
        <mxCell id="vWtjRod60_E_Yi40wf5S-2" value="" style="endArrow=none;dashed=1;html=1;dashPattern=1 3;strokeWidth=2;rounded=0;shadow=0;strokeColor=#000000;" edge="1" parent="1">
          <mxGeometry width="50" height="50" relative="1" as="geometry">
            <mxPoint x="-1870" y="1090" as="sourcePoint" />
            <mxPoint x="-1870" y="40" as="targetPoint" />
          </mxGeometry>
        </mxCell>
        <mxCell id="vWtjRod60_E_Yi40wf5S-3" value="&lt;font style=&quot;font-size: 18px;&quot;&gt;政务外网区&lt;/font&gt;" style="text;html=1;strokeColor=none;fillColor=none;align=center;verticalAlign=middle;whiteSpace=wrap;rounded=0;fontStyle=1" vertex="1" parent="1">
          <mxGeometry x="-1502" y="1110" width="142" height="30" as="geometry" />
        </mxCell>
        <mxCell id="vWtjRod60_E_Yi40wf5S-4" value="&lt;font style=&quot;font-size: 18px;&quot;&gt;互联网区&lt;/font&gt;" style="text;html=1;strokeColor=none;fillColor=none;align=center;verticalAlign=middle;whiteSpace=wrap;rounded=0;fontStyle=1" vertex="1" parent="1">
          <mxGeometry x="-2150" y="1110" width="142" height="30" as="geometry" />
        </mxCell>
        <mxCell id="vWtjRod60_E_Yi40wf5S-6" value="" style="fontColor=#0066CC;verticalAlign=top;verticalLabelPosition=bottom;labelPosition=center;align=center;html=1;outlineConnect=0;fillColor=#CCCCCC;strokeColor=#6881B3;gradientColor=none;gradientDirection=north;strokeWidth=2;shape=mxgraph.networks.pc;" vertex="1" parent="1">
          <mxGeometry x="-2210" y="493" width="100" height="70" as="geometry" />
        </mxCell>
        <mxCell id="vWtjRod60_E_Yi40wf5S-7" value="政务办公人员" style="fontColor=#0066CC;verticalAlign=top;verticalLabelPosition=bottom;labelPosition=center;align=center;html=1;outlineConnect=0;fillColor=#CCCCCC;strokeColor=#6881B3;gradientColor=none;gradientDirection=north;strokeWidth=2;shape=mxgraph.networks.pc;" vertex="1" parent="1">
          <mxGeometry x="-2260" y="577" width="100" height="70" as="geometry" />
        </mxCell>
        <mxCell id="vWtjRod60_E_Yi40wf5S-11" value="终端用户" style="sketch=0;outlineConnect=0;fontColor=#232F3E;gradientColor=none;fillColor=#232F3D;strokeColor=none;dashed=0;verticalLabelPosition=bottom;verticalAlign=top;align=center;html=1;fontSize=12;fontStyle=0;aspect=fixed;pointerEvents=1;shape=mxgraph.aws4.mobile_client;" vertex="1" parent="1">
          <mxGeometry x="-2211" y="234" width="41" height="78" as="geometry" />
        </mxCell>
        <mxCell id="vWtjRod60_E_Yi40wf5S-12" value="internet" style="whiteSpace=wrap;html=1;shape=mxgraph.basic.cloud_callout" vertex="1" parent="1">
          <mxGeometry x="-2090" y="280" width="180" height="120" as="geometry" />
        </mxCell>
        <mxCell id="vWtjRod60_E_Yi40wf5S-13" value="" style="endArrow=classic;html=1;rounded=0;" edge="1" parent="1" source="vWtjRod60_E_Yi40wf5S-6" target="vWtjRod60_E_Yi40wf5S-12">
          <mxGeometry width="50" height="50" relative="1" as="geometry">
            <mxPoint x="-2140" y="510" as="sourcePoint" />
            <mxPoint x="-2090" y="460" as="targetPoint" />
          </mxGeometry>
        </mxCell>
        <mxCell id="vWtjRod60_E_Yi40wf5S-14" value="" style="endArrow=classic;html=1;rounded=0;" edge="1" parent="1" source="vWtjRod60_E_Yi40wf5S-11" target="vWtjRod60_E_Yi40wf5S-12">
          <mxGeometry width="50" height="50" relative="1" as="geometry">
            <mxPoint x="-1790" y="720" as="sourcePoint" />
            <mxPoint x="-1740" y="670" as="targetPoint" />
          </mxGeometry>
        </mxCell>
        <mxCell id="vWtjRod60_E_Yi40wf5S-15" value="" style="endArrow=classic;html=1;rounded=0;exitX=0.63;exitY=0.125;exitDx=0;exitDy=0;exitPerimeter=0;" edge="1" parent="1" source="vWtjRod60_E_Yi40wf5S-12" target="ecegI3zlYM2VMeXqjpL7-4">
          <mxGeometry width="50" height="50" relative="1" as="geometry">
            <mxPoint x="-1790" y="720" as="sourcePoint" />
            <mxPoint x="-1740" y="670" as="targetPoint" />
          </mxGeometry>
        </mxCell>
      </root>
    </mxGraphModel>
  </diagram>
</mxfile>
